<mxfile host="app.diagrams.net" agent="Mozilla/5.0 (Windows NT 10.0; Win64; x64) AppleWebKit/537.36 (KHTML, like Gecko) Chrome/131.0.0.0 Safari/537.36" version="26.0.2">
  <diagram name="Σελίδα-1" id="VGns2ckOxA8oa79EkmPE">
    <mxGraphModel dx="574" dy="298" grid="1" gridSize="10" guides="1" tooltips="1" connect="1" arrows="1" fold="1" page="1" pageScale="1" pageWidth="827" pageHeight="1169" math="0" shadow="0">
      <root>
        <mxCell id="0" />
        <mxCell id="1" parent="0" />
        <mxCell id="zgWkzdfYNDcbBaCL5vdr-1" value="" style="endArrow=none;html=1;rounded=1;strokeWidth=3;strokeColor=#696969;curved=0;" edge="1" parent="1">
          <mxGeometry width="50" height="50" relative="1" as="geometry">
            <mxPoint x="280" y="320" as="sourcePoint" />
            <mxPoint x="280" y="200" as="targetPoint" />
          </mxGeometry>
        </mxCell>
        <mxCell id="zgWkzdfYNDcbBaCL5vdr-2" value="" style="endArrow=none;html=1;rounded=1;strokeWidth=3;strokeColor=#696969;sourcePerimeterSpacing=0;curved=0;" edge="1" parent="1">
          <mxGeometry width="50" height="50" relative="1" as="geometry">
            <mxPoint x="280" y="320" as="sourcePoint" />
            <mxPoint x="520" y="320" as="targetPoint" />
          </mxGeometry>
        </mxCell>
        <mxCell id="zgWkzdfYNDcbBaCL5vdr-5" value="Προγραμματιστική εμπειρία που απαιτείται" style="text;html=1;align=right;verticalAlign=middle;whiteSpace=wrap;rounded=0;fontFamily=Garamond;fontSize=10;fontStyle=0" vertex="1" parent="1">
          <mxGeometry x="170" y="197" width="105" height="30" as="geometry" />
        </mxCell>
        <mxCell id="zgWkzdfYNDcbBaCL5vdr-6" value="Τύπος προγραμματιστή" style="text;html=1;align=center;verticalAlign=middle;whiteSpace=wrap;rounded=0;fontFamily=Garamond;fontSize=10;fontStyle=0" vertex="1" parent="1">
          <mxGeometry x="402" y="316" width="140" height="30" as="geometry" />
        </mxCell>
        <mxCell id="zgWkzdfYNDcbBaCL5vdr-7" value="" style="ellipse;whiteSpace=wrap;html=1;aspect=fixed;" vertex="1" parent="1">
          <mxGeometry x="316" y="287" width="10" height="10" as="geometry" />
        </mxCell>
        <mxCell id="zgWkzdfYNDcbBaCL5vdr-9" value="Καθόλου κώδικας" style="text;html=1;align=center;verticalAlign=middle;whiteSpace=wrap;rounded=0;fontFamily=Garamond;fontSize=10;fontStyle=0" vertex="1" parent="1">
          <mxGeometry x="252" y="288" width="140" height="30" as="geometry" />
        </mxCell>
        <mxCell id="zgWkzdfYNDcbBaCL5vdr-11" value="" style="ellipse;whiteSpace=wrap;html=1;aspect=fixed;fillColor=light-dark(#8A8A8A,#EDEDED);strokeColor=default;strokeWidth=1;perimeterSpacing=0;" vertex="1" parent="1">
          <mxGeometry x="389" y="241" width="10" height="10" as="geometry" />
        </mxCell>
        <mxCell id="zgWkzdfYNDcbBaCL5vdr-14" value="Υψηλός κώδικας" style="text;html=1;align=center;verticalAlign=middle;whiteSpace=wrap;rounded=0;fontFamily=Garamond;fontSize=10;fontStyle=0" vertex="1" parent="1">
          <mxGeometry x="412" y="208" width="140" height="30" as="geometry" />
        </mxCell>
        <mxCell id="zgWkzdfYNDcbBaCL5vdr-15" value="" style="ellipse;whiteSpace=wrap;html=1;aspect=fixed;fillColor=#0D0D0D;" vertex="1" parent="1">
          <mxGeometry x="478" y="207" width="10" height="10" as="geometry" />
        </mxCell>
        <mxCell id="zgWkzdfYNDcbBaCL5vdr-16" value="Χαμηλός κώδικας" style="text;html=1;align=center;verticalAlign=middle;whiteSpace=wrap;rounded=0;fontFamily=Garamond;fontSize=10;fontStyle=0" vertex="1" parent="1">
          <mxGeometry x="322" y="244" width="140" height="30" as="geometry" />
        </mxCell>
      </root>
    </mxGraphModel>
  </diagram>
</mxfile>
